# (c)2024 Karljohan Lundin Palmerius
#
# Cube with one corner in origin, spans 0-1 on each axis.

mtllib standard_material.mtl
usemtl std_gray_08

vn -2.000000 -1.000000 2.000000
v 0.000000 0.000000 1.000000
vn 1.000000 -2.000000 1.000000
v 1.000000 0.000000 1.000000
vn 2.000000 1.000000 2.000000
v 1.000000 1.000000 1.000000
vn -1.000000 2.000000 1.000000
v 0.000000 1.000000 1.000000
vn -2.000000 1.000000 -2.000000
v 0.000000 1.000000 0.000000
vn 1.000000 2.000000 -1.000000
v 1.000000 1.000000 0.000000
vn 2.000000 -1.000000 -2.000000
v 1.000000 0.000000 0.000000
vn -1.000000 -2.000000 -1.000000
v 0.000000 0.000000 0.000000
# 8 vertices, 0 vertices normals

f 1//1 2//2 3//3
f 1//1 3//3 4//4
f 5//5 6//6 7//7
f 5//5 7//7 8//8
f 8//8 7//7 2//2
f 8//8 2//2 1//1
f 7//7 6//6 3//3
f 7//7 3//3 2//2
f 6//6 5//5 4//4
f 6//6 4//4 3//3
f 5//5 8//8 1//1
f 5//5 1//1 4//4
# 12 faces, 0 coords texture

# End of File
