# (c)2024 Karljohan Lundin Palmerius
#
# Standard wand beam, 1 cm diameter, from origin 1000 m into -z

mtllib standard_material.mtl
usemtl std_gray_08

vn 1.309016 -2.126629 2.000000
v 0.001545 -0.004755 0.000000
vn 0.190983 -2.489899 -1.000000
v 0.001545 -0.004755 -1000.000000
vn 2.427049 -0.587786 -3.000000
v 0.005000 0.000000 -1000.000000
vn 2.427049 0.587786 1.000000
v 0.005000 0.000000 0.000000
vn -1.618033 -1.902113 2.000000
v -0.004045 -0.002939 0.000000
vn -2.309016 -0.951057 -2.000000
v -0.004045 -0.002939 -1000.000000
vn -2.309016 0.951057 1.000000
v -0.004045 0.002939 0.000000
vn -1.618033 1.902113 -2.000000
v -0.004045 0.002939 -1000.000000
vn 0.190983 2.489899 3.000000
v 0.001545 0.004755 0.000000
vn 1.309016 2.126629 -1.000000
v 0.001545 0.004755 -1000.000000
# 10 vertices, 0 vertices normals

f 1//1 2//2 3//3
f 1//1 3//3 4//4
f 5//5 6//6 2//2
f 5//5 2//2 1//1
f 7//7 8//8 6//6
f 7//7 6//6 5//5
f 9//9 10//10 8//8
f 9//9 8//8 7//7
f 4//4 3//3 10//10
f 4//4 10//10 9//9
f 9//9 7//7 5//5
f 9//9 5//5 1//1
f 9//9 1//1 4//4
f 3//3 2//2 6//6
f 3//3 6//6 8//8
f 3//3 8//8 10//10
# 16 faces, 0 coords texture

# End of File
